<?xml version="1.0" encoding="UTF-8" standalone="no"?>
<!-- Created with Inkscape (http://www.inkscape.org/) -->

<svg version="1.1" id="clock" width="24" height="24" viewBox="0 0 24 24" xmlns:inkscape="http://www.inkscape.org/namespaces/inkscape" xmlns:sodipodi="http://sodipodi.sourceforge.net/DTD/sodipodi-0.dtd" xmlns="http://www.w3.org/2000/svg" xmlns:svg="http://www.w3.org/2000/svg">
  <defs id="defs1" />
  <sodipodi:namedview id="namedview1" pagecolor="#ffffff" bordercolor="#000000" borderopacity="0.25" inkscape:showpageshadow="2" inkscape:pageopacity="0.0" inkscape:pagecheckerboard="0" inkscape:deskcolor="#d1d1d1" />
  <path id="clock_path" d="M 12,0.06699077 C 5.4096182,0.06709458 0.06709473,5.4096179 0.06699093,12 0.06709473,18.590381 5.4096182,23.932905 12,23.933009 18.590381,23.932905 23.932905,18.590381 23.933009,12 23.932905,5.4096179 18.590381,0.06709458 12,0.06699077 Z m 0,1.35493593 c 0.164879,-6.2e-6 0.328776,0.00405 0.491818,0.011523 a 10.577719,10.577719 0 0 1 0.189638,0.013298 c 0.106046,0.00675 0.21207,0.013173 0.317244,0.023035 a 10.577719,10.577719 0 0 1 0.138241,0.015062 c 0.133877,0.014325 0.26732,0.030343 0.399658,0.04963 a 10.577719,10.577719 0 0 1 0.01506,0.00176 c 0.0099,0.00145 0.02026,0.00384 0.03014,0.00529 0.152644,0.0229 0.303276,0.048634 0.453713,0.07798 a 10.577719,10.577719 0 0 1 0.0638,0.013298 c 0.157468,0.031723 0.313928,0.06682 0.468778,0.1054531 a 10.577719,10.577719 0 0 1 0.0018,8.844e-4 c 5.91e-4,1.484e-4 0.0011,7.401e-4 0.0018,8.855e-4 0.167322,0.041824 0.333966,0.086793 0.498021,0.1364684 a 10.577719,10.577719 0 0 1 0.0018,8.845e-4 h 9.08e-4 c 0.190688,0.057789 0.379414,0.118896 0.565369,0.1869787 0.162017,0.059315 0.321216,0.1218441 0.479411,0.1887517 h 9.09e-4 c 0.07198,0.030457 0.140632,0.066374 0.211791,0.098367 a 10.577719,10.577719 0 0 1 0.315472,0.1479889 c 0.09454,0.046308 0.188875,0.091879 0.281799,0.1408989 a 10.577719,10.577719 0 0 1 0.511313,0.2862294 c 0.0026,0.00156 0.0054,0.00374 0.008,0.00529 0.05307,0.031931 0.103516,0.066416 0.155963,0.09925 a 10.577719,10.577719 0 0 1 0.422698,0.2773674 c 0.05761,0.040018 0.115145,0.080284 0.171914,0.121404 a 10.577719,10.577719 0 0 1 0.521947,0.3996579 c 0.01629,0.013412 0.03165,0.028142 0.04786,0.041647 a 10.577719,10.577719 0 0 1 0.470551,0.4173808 c 0.0385,0.036145 0.07636,0.072291 0.114314,0.1089981 a 10.577719,10.577719 0 0 1 0.462574,0.4732081 c 0.0052,0.00571 0.01074,0.011107 0.01595,0.016837 a 10.577719,10.577719 0 0 1 0.008,0.00799 10.577719,10.577719 0 0 1 0.428901,0.508655 c 0.0393,0.049194 0.07766,0.098969 0.116086,0.1488744 A 10.577719,10.577719 0 0 1 20.6996,5.9873701 c 0.03014,0.043516 0.06266,0.085391 0.09216,0.1293795 a 10.577719,10.577719 0 0 1 0.0045,0.00623 10.577719,10.577719 0 0 1 0.322562,0.5192879 c 0.04532,0.076962 0.08863,0.1548672 0.132038,0.2330606 a 10.577719,10.577719 0 0 1 0.183435,0.3473736 c 0.05971,0.1176774 0.118299,0.2360772 0.173686,0.3562356 a 10.577719,10.577719 0 0 1 0.182549,0.4191538 c 0.04228,0.1033188 0.08145,0.2078896 0.120518,0.3128132 a 10.577719,10.577719 0 0 1 0.116972,0.3305372 c 0.03179,0.094921 0.06479,0.189248 0.09393,0.2853429 a 10.577719,10.577719 0 0 1 9.07e-4,0.00176 10.577719,10.577719 0 0 1 0.152418,0.5653687 c 0.02179,0.089606 0.04254,0.1797911 0.06204,0.2702784 a 10.577719,10.577719 0 0 1 0.09304,0.4865015 c 0.01017,0.06102 0.0219,0.122065 0.03102,0.183434 a 10.577719,10.577719 0 0 1 0.0771,0.677912 c 0.0045,0.05346 0.0087,0.106706 0.01241,0.160394 A 10.577719,10.577719 0 0 1 22.578071,12 a 10.577719,10.577719 0 0 1 -0.01241,0.519289 c -0.008,0.166526 -0.02068,0.330944 -0.03633,0.495362 a 10.577719,10.577719 0 0 1 -0.0018,0.02215 v 9.07e-4 c -0.154993,1.591749 -0.66482,3.079733 -1.44621,4.385599 a 10.577719,10.577719 0 0 1 -0.03811,0.06292 c -0.07281,0.119759 -0.147717,0.237887 -0.225084,0.354464 a 10.577719,10.577719 0 0 1 -0.08507,0.125834 c -0.0646,0.09438 -0.130068,0.187878 -0.197613,0.280026 a 10.577719,10.577719 0 0 1 -0.11077,0.147103 c -0.0657,0.08645 -0.131998,0.172651 -0.200272,0.256986 a 10.577719,10.577719 0 0 1 -0.12229,0.147102 c -0.06723,0.08005 -0.135176,0.15949 -0.204702,0.23749 a 10.577719,10.577719 0 0 1 -0.134697,0.147988 c -0.06768,0.07311 -0.135887,0.145047 -0.205588,0.216223 a 10.577719,10.577719 0 0 1 -0.150647,0.150647 c -0.07403,0.07264 -0.148945,0.143989 -0.225085,0.214451 a 10.577719,10.577719 0 0 1 -0.13824,0.125834 c -0.08017,0.07163 -0.161356,0.140829 -0.243694,0.21002 a 10.577719,10.577719 0 0 1 -0.14533,0.120517 c -0.08635,0.06999 -0.173736,0.138301 -0.262303,0.205588 a 10.577719,10.577719 0 0 1 -0.13381,0.101025 c -0.102696,0.0755 -0.207337,0.14794 -0.312813,0.219767 a 10.577719,10.577719 0 0 1 -0.09216,0.0638 c -0.131115,0.08729 -0.264513,0.171054 -0.399658,0.252554 a 10.577719,10.577719 0 0 1 -0.01506,0.0098 c -0.0015,8.63e-4 -0.003,0.0018 -0.0045,0.0027 -1.306851,0.784227 -2.795134,1.294529 -4.389143,1.450642 a 10.577719,10.577719 0 0 1 -0.008,9.07e-4 c -0.04233,0.0042 -0.08512,0.0061 -0.127606,0.0098 -0.121053,0.01028 -0.242916,0.02128 -0.365098,0.02747 -0.007,3.54e-4 -0.0134,5.45e-4 -0.02038,9.08e-4 a 10.577719,10.577719 0 0 1 -0.523685,0.01229 c -0.50554,1.9e-5 -1.002076,-0.03856 -1.488746,-0.107225 a 10.577719,10.577719 0 0 1 -0.02659,-0.0027 C 9.9858882,22.396494 9.4989361,22.289636 9.0251654,22.150929 a 10.577719,10.577719 0 0 1 -0.00976,-0.0027 C 8.6285823,22.034611 8.2499327,21.902016 7.8829117,21.746819 h -9.073e-4 c -0.091734,-0.03879 -0.181668,-0.08188 -0.2720504,-0.123175 a 10.577719,10.577719 0 0 1 -0.00706,-0.0035 C 7.1519287,21.413684 6.7179149,21.177313 6.3037531,20.912064 a 10.577719,10.577719 0 0 1 -0.04254,-0.02836 C 5.8534593,20.619774 5.4641873,20.32945 5.0976914,20.013499 a 10.577719,10.577719 0 0 1 -0.047855,-0.04165 c -0.361596,-0.315533 -0.70069,-0.655884 -1.0164212,-1.01731 a 10.577719,10.577719 0 0 1 -0.051395,-0.05938 C 3.6695125,18.532028 3.3822004,18.14761 3.120675,17.744041 a 10.577719,10.577719 0 0 1 -0.03545,-0.05405 C 2.8223791,17.278922 2.5875133,16.848832 2.3825231,16.401547 A 10.577719,10.577719 0 0 1 2.37453,16.384709 C 2.3339208,16.295674 2.2913289,16.207431 2.253128,16.11709 2.1862142,15.958894 2.1236956,15.799696 2.0643753,15.637678 1.9857209,15.422838 1.915695,15.203929 1.8508116,14.982807 a 10.577719,10.577719 0 0 1 -0.00176,-0.0053 C 1.7091643,14.499845 1.6017793,14.008655 1.5300385,13.505583 1.4598943,13.013713 1.4219083,12.511192 1.421927,12 1.4219207,11.817431 1.426077,11.636196 1.435214,11.455898 1.477858,10.614052 1.6214528,9.7985304 1.8499366,9.0198493 1.9639163,8.6313983 2.0973173,8.2514014 2.2531384,7.8829073 V 7.882 C 2.2863773,7.803408 2.3261768,7.7283246 2.361249,7.6507124 A 10.577719,10.577719 0 0 1 2.406446,7.5541204 C 2.6023338,7.1321481 2.8233954,6.7243476 3.0710658,6.3347662 A 10.577719,10.577719 0 0 1 3.1499381,6.2160217 C 3.3991811,5.8354082 3.6703367,5.4713196 3.9652038,5.1269326 A 10.577719,10.577719 0 0 1 4.0733144,5.0055285 C 4.3707351,4.6686975 4.6874567,4.350366 5.0250485,4.0537943 A 10.577719,10.577719 0 0 1 5.1473391,3.9492278 C 5.4929978,3.6547292 5.8571777,3.3817186 6.2390857,3.1330755 A 10.577719,10.577719 0 0 1 6.3489692,3.063961 C 6.7429873,2.8142332 7.1528287,2.5890298 7.5798438,2.3922527 a 10.577719,10.577719 0 0 1 0.07089,-0.031017 C 8.0852486,2.1648735 8.5333863,1.9957734 8.9968075,1.8587838 a 10.577719,10.577719 0 0 1 0.066467,-0.01772 C 9.5209515,1.7090208 9.9904713,1.6040712 10.471381,1.5344532 a 10.577719,10.577719 0 0 1 0.07798,-0.00882 C 11.024187,1.4604255 11.507249,1.4219091 12,1.4219267 Z M 10.870148,4.5243678 A 0.91184573,0.91184573 0 0 0 9.9769006,5.4557195 l 0.00882,7.0733165 a 0.44417865,0.44417865 0 0 0 0.1302644,0.314587 l 2.856089,2.848113 a 0.93223047,0.93223047 0 0 0 1.317717,-9.07e-4 0.91302996,0.91302996 0 0 0 -0.02658,-1.291133 L 11.931726,12.069121 A 0.44418279,0.44418279 0 0 1 11.801501,11.754533 V 5.4557195 A 0.93130307,0.93130307 0 0 0 10.870148,4.5243678 Z" />
</svg>
