<?xml version="1.0" encoding="UTF-8" standalone="no"?>
<svg
   class="ionicon"
   viewBox="0 0 32 32"
   version="1.1"
   id="close"
   sodipodi:docname="close-circle.svg"
   inkscape:version="1.3 (0e150ed6c4, 2023-07-21)"
   xmlns:inkscape="http://www.inkscape.org/namespaces/inkscape"
   xmlns:sodipodi="http://sodipodi.sourceforge.net/DTD/sodipodi-0.dtd"
   xmlns="http://www.w3.org/2000/svg"
   xmlns:svg="http://www.w3.org/2000/svg">
  <defs
     id="defs1" />
  <sodipodi:namedview
     id="namedview1"
     pagecolor="#ffffff"
     bordercolor="#000000"
     borderopacity="0.25"
     inkscape:showpageshadow="2"
     inkscape:pageopacity="0.0"
     inkscape:pagecheckerboard="0"
     inkscape:deskcolor="#d1d1d1"
     inkscape:zoom="3.0898438"
     inkscape:cx="207.93932"
     inkscape:cy="208.10114"
     inkscape:window-width="4300"
     inkscape:window-height="1771"
     inkscape:window-x="2391"
     inkscape:window-y="-1"
     inkscape:window-maximized="1"
     inkscape:current-layer="svg1" />
  <path
     d="M 16,0 C 7.177692,0 0,7.177692 0,16 0,24.822308 7.177692,32 16,32 24.822308,32 32,24.822308 32,16 32,7.177692 24.822308,0 16,0 Z m 5.793077,20.053077 a 1.2307692,1.2307692 0 1 1 -1.74,1.74 L 16,17.740769 11.946923,21.793077 a 1.2307692,1.2307692 0 0 1 -1.74,-1.74 L 14.259231,16 10.206923,11.946923 a 1.2307692,1.2307692 0 0 1 1.74,-1.74 L 16,14.259231 20.053077,10.206923 a 1.2307692,1.2307692 0 0 1 1.74,1.74 L 17.740769,16 Z"
     id="path1"
     style="stroke-width:0.0769231" />
</svg>
