<?xml version="1.0" encoding="UTF-8" standalone="no"?>
<!-- Created with Inkscape (http://www.inkscape.org/) -->

<svg version="1.1" id="envelope" width="24" height="24" viewBox="0 0 24 24" xmlns="http://www.w3.org/2000/svg" xmlns:svg="http://www.w3.org/2000/svg">
  <defs id="defs1" />
  <path id="envelope_bottom" d="M 0.67788177,3.5590182 A 0.40793955,0.40793955 0 0 0 0.2700623,3.9697716 L 0.2891335,7.2513969 A 0.73849022,0.73849022 0 0 0 0.6412078,7.8763291 L 11.684604,14.662561 a 0.6663066,0.6663066 0 0 0 0.699748,0 L 23.380807,7.8777959 a 0.73517688,0.73517688 0 0 0 0.34914,-0.626399 V 3.9697716 A 0.41025487,0.41025487 0 0 0 23.319193,3.5590182 Z M 2.0157641,4.6665853 H 21.950504 a 0.41025487,0.41025487 0 0 1 0.410754,0.4107534 v 1.6312775 a 0.73458484,0.73458484 0 0 1 -0.34914,0.6249313 L 12.37555,13.270401 a 0.66865573,0.66865573 0 0 1 -0.699747,0.0015 L 1.9556181,7.3320807 A 0.73148395,0.73148395 0 0 1 1.6064776,6.7086162 V 5.0773387 A 0.41025487,0.41025487 0 0 1 2.0157641,4.6665853 Z m 21.4824009,4.509485 a 0.20320288,0.20320288 0 0 0 -0.08068,0.030809 L 22.65172,9.6983146 a 0.68307163,0.68307163 0 0 0 -0.312466,0.5750544 v 8.474721 a 0.37256156,0.37256156 0 0 1 -0.372611,0.372614 H 2.0524385 A 0.37647962,0.37647962 0 0 1 1.6754255,18.74809 L 1.5874074,10.273369 A 0.71385024,0.71385024 0 0 0 1.2749414,9.6909799 L 0.5766607,9.2142133 A 0.19644428,0.19644428 0 0 0 0.27006264,9.3770477 L 0.29206743,20.06837 a 0.37331875,0.37331875 0 0 0 0.37261195,0.372612 H 23.357336 A 0.37256156,0.37256156 0 0 0 23.729947,20.06837 V 9.3770456 A 0.20320288,0.20320288 0 0 0 23.498165,9.1760703 Z" />
</svg>
