<?xml version="1.0" encoding="iso-8859-1"?>
<svg version="1.1" id="lamppost" xmlns="http://www.w3.org/2000/svg" xmlns:xlink="http://www.w3.org/1999/xlink" 
	 viewBox="0 0 512 512" xml:space="preserve">
<path d="M359.991,40.059c0.001-0.189,0.001-0.379-0.011-0.569c-0.006-0.094-0.018-0.187-0.027-0.28
	c-0.018-0.181-0.039-0.362-0.069-0.542c-0.016-0.092-0.035-0.182-0.054-0.273c-0.036-0.179-0.078-0.357-0.127-0.534
	c-0.025-0.09-0.053-0.179-0.081-0.268c-0.054-0.171-0.114-0.341-0.18-0.51c-0.036-0.093-0.074-0.185-0.114-0.276
	c-0.068-0.156-0.143-0.311-0.222-0.464c-0.051-0.1-0.103-0.199-0.159-0.296c-0.078-0.137-0.163-0.271-0.25-0.405
	c-0.068-0.105-0.136-0.209-0.21-0.312c-0.031-0.043-0.056-0.088-0.088-0.13l-24-32C332.889,1.186,330.518,0,328,0
	s-4.889,1.186-6.4,3.2l-24,32c-0.032,0.042-0.057,0.087-0.088,0.13c-0.073,0.102-0.141,0.206-0.21,0.311
	c-0.087,0.134-0.172,0.269-0.25,0.406c-0.055,0.098-0.107,0.196-0.158,0.295c-0.079,0.154-0.154,0.308-0.222,0.465
	c-0.04,0.091-0.078,0.183-0.114,0.275c-0.066,0.168-0.126,0.338-0.18,0.51c-0.028,0.09-0.056,0.179-0.081,0.27
	c-0.049,0.176-0.09,0.354-0.126,0.533c-0.019,0.091-0.038,0.182-0.054,0.274c-0.03,0.181-0.051,0.362-0.069,0.543
	c-0.009,0.093-0.021,0.185-0.027,0.277c-0.012,0.19-0.013,0.38-0.011,0.571c0.001,0.084-0.004,0.168,0,0.253
	c0.011,0.273,0.033,0.547,0.072,0.818l8,56c0.563,3.941,3.938,6.869,7.919,6.869h8v8h-56v-8c0-4.418-3.582-8-8-8
	c-4.418,0-8,3.582-8,8v8h-56v-8h8c3.981,0,7.356-2.928,7.919-6.869l8-56c0.039-0.271,0.061-0.544,0.072-0.818
	c0.003-0.085-0.001-0.169,0-0.254c0.001-0.189,0.001-0.379-0.011-0.569c-0.006-0.094-0.018-0.187-0.027-0.28
	c-0.018-0.181-0.039-0.362-0.069-0.542c-0.016-0.092-0.035-0.182-0.054-0.273c-0.036-0.179-0.078-0.357-0.127-0.534
	c-0.025-0.09-0.053-0.179-0.081-0.268c-0.054-0.171-0.114-0.341-0.18-0.51c-0.036-0.093-0.074-0.185-0.114-0.276
	c-0.068-0.156-0.143-0.311-0.222-0.464c-0.051-0.1-0.103-0.199-0.159-0.296c-0.078-0.137-0.163-0.271-0.25-0.405
	c-0.068-0.105-0.136-0.209-0.21-0.312c-0.031-0.043-0.056-0.088-0.088-0.13l-24-32C188.889,1.186,186.518,0,184,0
	s-4.889,1.186-6.4,3.2l-24,32c-0.032,0.042-0.057,0.087-0.088,0.13c-0.073,0.102-0.141,0.206-0.21,0.311
	c-0.087,0.134-0.172,0.269-0.25,0.406c-0.055,0.098-0.107,0.196-0.158,0.295c-0.079,0.154-0.154,0.308-0.222,0.465
	c-0.04,0.091-0.078,0.183-0.114,0.275c-0.066,0.168-0.126,0.338-0.18,0.51c-0.028,0.09-0.056,0.179-0.081,0.27
	c-0.049,0.176-0.09,0.354-0.126,0.533c-0.019,0.091-0.038,0.182-0.054,0.274c-0.03,0.181-0.051,0.362-0.069,0.543
	c-0.009,0.093-0.021,0.185-0.027,0.277c-0.012,0.19-0.013,0.38-0.011,0.571c0.001,0.084-0.004,0.168,0,0.253
	c0.011,0.273,0.033,0.547,0.072,0.818l8,56c0.563,3.941,3.938,6.869,7.919,6.869h8v32c0,4.418,3.582,8,8,8s8-3.582,8-8v-8h56
	v209.376c-9.311,3.303-16,12.195-16,22.624v136h-8c-4.418,0-8,3.582-8,8s3.582,8,8,8h64c4.418,0,8-3.582,8-8s-3.582-8-8-8h-8V360
	c0-10.429-6.689-19.321-16-22.624V128h56v8c0,4.418,3.582,8,8,8s8-3.582,8-8v-32h8c3.981,0,7.356-2.928,7.919-6.869l8-56
	c0.039-0.271,0.061-0.544,0.072-0.818C359.995,40.229,359.991,40.144,359.991,40.059z M184,21.333L192,32h-16L184,21.333z
	 M169.224,48h29.552l-5.714,40h-18.123L169.224,48z M248,496V360c0-4.411,3.589-8,8-8c4.411,0,8,3.589,8,8v136H248z M328,21.333
	L336,32h-16L328,21.333z M337.062,88h-18.123l-5.714-40h29.552L337.062,88z"/>
</svg>
