<?xml version="1.0" encoding="UTF-8" standalone="no"?>
<!-- Uploaded to: SVG Repo, www.svgrepo.com, Generator: SVG Repo Mixer Tools -->

<svg id="security" viewBox="0 0 32 24.929959" version="1.1"  xmlns:inkscape="http://www.inkscape.org/namespaces/inkscape" xmlns:sodipodi="http://sodipodi.sourceforge.net/DTD/sodipodi-0.dtd" xmlns="http://www.w3.org/2000/svg" xmlns:svg="http://www.w3.org/2000/svg">
  <defs id="defs1" />
  <sodipodi:namedview showborder="false" borderlayer="false" inkscape:showpageshadow="false" showguides="false" id="namedview1" pagecolor="#ffffff" bordercolor="#000000" borderopacity="0.25" inkscape:pageopacity="0.0" inkscape:pagecheckerboard="0" inkscape:deskcolor="#d1d1d1" />
  <path d="M 28.297622,8.042358 C 26.971462,7.879577 19.240569,6.930345 17.934801,6.770025 15.033562,6.4138744 12.357687,8.596448 12.357687,8.596448 c 0,0 -4.236891,-0.471469 -5.687511,-0.64972 C 1.8348957,7.353296 0.26684923,4.134581 0.77417897,0 3.002142,0.2735299 31.928038,3.4570866 31.928038,3.4570866 c 0,0 -0.366347,4.9857214 -3.630416,4.5852714 z M 4.8746567,9.21769 c 2.2455416,0.275639 8.4446013,0.941532 8.4446013,0.941532 0,0 1.877789,-2.136904 5.358431,-1.709383 0.571669,0.07032 2.570754,0.315368 4.876064,0.598741 -0.116374,0.953133 -0.227472,1.86232 -0.300249,2.453677 -0.262279,2.138661 -1.71325,2.669899 -4.154621,2.370001 -0.757304,-0.09317 -2.884363,-0.373026 -5.456875,-0.71441 -0.461272,1.278345 -1.670004,2.27191 -3.566076,2.039163 C 8.3159228,14.981141 7.4397851,13.693304 7.33185,12.316517 3.3885279,11.789146 0,11.33385 0,11.33385 L 0.60260838,6.4258279 C 1.6911001,8.142207 3.3066106,9.025024 4.8746567,9.21769 Z M 3.7664766,19.341085 c 0.9155146,0.0077 1.9379094,0.01441 2.8316257,0.01441 2.4884836,0 2.6150523,-0.731638 2.6150523,-1.925604 0,-0.277045 0.041838,-0.550574 0.041838,-0.550574 l 2.8126414,-0.07489 c 0,0 -0.04184,0.252083 -0.04184,0.625461 0,3.143829 -1.826108,4.738245 -5.4276938,4.738245 -0.8975833,0 -1.923846,-0.0067 -2.8425243,-0.01441 -0.4612726,1.501948 -1.6766855,2.720173 -3.65502616,2.720173 l 0.00598,-8.29764 C 2.09577,16.576607 3.3143466,17.818739 3.7664777,19.341081 Z m 25.2680574,-9.619932 -0.519987,3.517206 -3.278835,-0.529831 0.05485,-3.447242 c 1.298385,0.159617 2.604856,0.32029 3.743976,0.459867 z" fill="#000000" id="cam-svg" />
</svg>
